<svg width="204" height="141" viewBox="0 0 204 141" fill="none" xmlns="http://www.w3.org/2000/svg">
<path d="M102 21.2215V139M102 21.2215L16.2857 2V21.2215M102 21.2215L187.714 2V21.2215M102 139H2V21.2215H16.2857M102 139H202V21.2215H187.714M102 139L16.2857 125.997V21.2215M102 139L187.714 125.997V21.2215M86.0226 36.2971L34.1429 24.425M86.0226 50.2421L34.1429 38.37M86.0226 64.1871L34.1429 52.315M86.0226 78.1321L34.1429 66.26M117.226 74.74L169.105 62.868M117.226 88.685L169.105 76.8129M117.226 102.63L169.105 90.7579M117.226 116.575L169.105 104.703M86.0226 93.5846L34.1429 81.7125V104.703L86.0226 116.575V93.5846ZM117.226 36.2971L169.105 24.425V47.4154L117.226 59.2875V36.2971Z" stroke="black" stroke-width="3"/>
</svg>
